<svg id="Objects" xmlns="http://www.w3.org/2000/svg" viewBox="0 0 573.55 339.31"><defs><style>.cls-1{fill:#eac689;}.cls-2{fill:#c49c62;}.cls-3{fill:#bce2f0;}.cls-4{fill:#65b37b;}.cls-5{opacity:0.12;}.cls-6{fill:#fff;}.cls-7{fill:#7ea1f4;}.cls-8{fill:#cd6e95;}</style></defs><path class="cls-1" d="M177.16,28.7l1.74,1.83a.56.56,0,0,0,.5.17l2.5-.39a.56.56,0,0,1,.59.82l-1.21,2.23a.56.56,0,0,0,0,.52l1.15,2.26a.56.56,0,0,1-.6.81l-2.49-.46a.58.58,0,0,0-.5.16L177,38.44a.57.57,0,0,1-1-.33l-.33-2.51a.59.59,0,0,0-.31-.43L173.19,34a.57.57,0,0,1,0-1l2.28-1.09a.57.57,0,0,0,.32-.42l.39-2.5A.57.57,0,0,1,177.16,28.7Z"/><path class="cls-1" d="M541.28,65.65l0,1.7a.35.35,0,0,0,.15.31l1.37,1a.38.38,0,0,1-.12.67l-1.63.47a.37.37,0,0,0-.26.24l-.54,1.62a.38.38,0,0,1-.67.09l-1-1.41a.38.38,0,0,0-.31-.16l-1.7,0a.38.38,0,0,1-.3-.61l1-1.34a.4.4,0,0,0,.06-.35l-.51-1.62a.38.38,0,0,1,.49-.48l1.6.58a.37.37,0,0,0,.35,0l1.38-1A.38.38,0,0,1,541.28,65.65Z"/><path class="cls-1" d="M318.54,244.24l-.05,1.7a.35.35,0,0,0,.15.31l1.37,1a.39.39,0,0,1-.12.68l-1.64.47a.38.38,0,0,0-.25.24l-.54,1.62a.38.38,0,0,1-.67.09l-1-1.41a.38.38,0,0,0-.31-.16l-1.7,0a.38.38,0,0,1-.3-.61l1.05-1.34a.4.4,0,0,0,.06-.35l-.51-1.63a.38.38,0,0,1,.49-.47l1.6.58a.37.37,0,0,0,.35,0l1.38-1A.38.38,0,0,1,318.54,244.24Z"/><path class="cls-1" d="M5.1,237.1l0,1.7a.36.36,0,0,0,.15.32l1.37,1a.38.38,0,0,1-.12.67l-1.64.48a.36.36,0,0,0-.25.24L4,243.14a.38.38,0,0,1-.67.09l-1-1.41a.38.38,0,0,0-.31-.17H.38a.38.38,0,0,1-.3-.61l1-1.35a.4.4,0,0,0,.06-.35l-.52-1.62a.38.38,0,0,1,.5-.47l1.6.58a.4.4,0,0,0,.35,0l1.38-1A.38.38,0,0,1,5.1,237.1Z"/><path class="cls-1" d="M499.76,184.21l-.05,1.7a.36.36,0,0,0,.15.32l1.37,1a.38.38,0,0,1-.12.67l-1.63.48a.37.37,0,0,0-.26.24l-.54,1.62a.38.38,0,0,1-.67.09l-1-1.41a.38.38,0,0,0-.31-.17H495a.38.38,0,0,1-.3-.61l1.05-1.35a.38.38,0,0,0,.06-.34l-.51-1.63a.38.38,0,0,1,.49-.47l1.6.58a.39.39,0,0,0,.35-.05l1.38-1A.38.38,0,0,1,499.76,184.21Z"/><path class="cls-1" d="M255.34,130l-.06,1.7a.38.38,0,0,0,.15.32l1.37,1a.38.38,0,0,1-.12.67l-1.63.47a.4.4,0,0,0-.26.25l-.54,1.61a.38.38,0,0,1-.67.1l-1-1.41a.36.36,0,0,0-.31-.17h-1.7a.39.39,0,0,1-.3-.62l1.05-1.34a.37.37,0,0,0,.06-.35l-.51-1.62a.38.38,0,0,1,.49-.47l1.6.58a.39.39,0,0,0,.35,0l1.38-1A.39.39,0,0,1,255.34,130Z"/><path class="cls-2" d="M287.3,110.74c3-.85,5.95-2,8.88-3.14a21.65,21.65,0,0,0,5.88-9.07l-3,1.08a125,125,0,0,1-13,4,109.71,109.71,0,0,1-19.91,2.91,21.52,21.52,0,0,0,11.5,6.32A89.69,89.69,0,0,0,287.3,110.74Z"/><path class="cls-2" d="M277.48,70.73a21.28,21.28,0,0,0-8.73,3.94A74.84,74.84,0,0,1,287,71,21.45,21.45,0,0,0,277.48,70.73Z"/><path class="cls-2" d="M296.67,76.39a21.4,21.4,0,0,0-4.93-3.59,86.55,86.55,0,0,0-14.36,2.7c-4.77,1.33-9.26,3.42-13.92,5A21.44,21.44,0,0,0,260.81,87a91.71,91.71,0,0,1,20.87-8.08A94,94,0,0,1,296.67,76.39Z"/><path class="cls-2" d="M302.18,85.35a21.06,21.06,0,0,0-2.77-5.72c-.46,0-.91,0-1.37.06a93.36,93.36,0,0,0-15,2.27A98.44,98.44,0,0,0,260.3,90.5a21.79,21.79,0,0,0,.39,5.49c.06.28.12.57.19.85,7.19-3.06,15.19-4.83,22.64-6.77C289.54,88.51,295.87,86.55,302.18,85.35Z"/><path class="cls-2" d="M299.64,95.45c1.15-.45,2.28-1,3.41-1.5a20.53,20.53,0,0,0,0-4.5c-6.25,1.43-12.73,2.37-18.86,3.86-7.46,1.83-15,4.41-22.58,5.86a21.08,21.08,0,0,0,2.44,4.72A143.46,143.46,0,0,0,285.34,100,127.27,127.27,0,0,0,299.64,95.45Z"/><path class="cls-1" d="M298,79.69c.46,0,.91,0,1.37-.06a21.35,21.35,0,0,0-2.74-3.24,94,94,0,0,0-15,2.52A91.71,91.71,0,0,0,260.81,87a20.63,20.63,0,0,0-.51,3.51A98.44,98.44,0,0,1,283.08,82,93.36,93.36,0,0,1,298,79.69Z"/><path class="cls-1" d="M303,89.45c-.07-.64-.16-1.28-.29-1.92a21.73,21.73,0,0,0-.56-2.18c-6.31,1.2-12.64,3.16-18.66,4.72-7.45,1.94-15.45,3.71-22.64,6.77a23.21,23.21,0,0,0,.71,2.33c7.59-1.45,15.12-4,22.58-5.86C290.3,91.82,296.78,90.88,303,89.45Z"/><path class="cls-1" d="M299,99.61l3-1.08a21.36,21.36,0,0,0,1-4.58c-1.13.53-2.26,1-3.41,1.5a127.27,127.27,0,0,1-14.3,4.59A143.46,143.46,0,0,1,264,103.89a21.38,21.38,0,0,0,2.12,2.61,109.71,109.71,0,0,0,19.91-2.91A125,125,0,0,0,299,99.61Z"/><path class="cls-1" d="M277.65,112.82a21.51,21.51,0,0,0,18.53-5.22c-2.93,1.13-5.85,2.29-8.88,3.14A89.69,89.69,0,0,1,277.65,112.82Z"/><path class="cls-1" d="M291.74,72.8A21.39,21.39,0,0,0,287,71a74.84,74.84,0,0,0-18.28,3.7,21.6,21.6,0,0,0-5.29,5.83c4.66-1.58,9.15-3.67,13.92-5A86.55,86.55,0,0,1,291.74,72.8Z"/><path class="cls-3" d="M201.85,314.86c-.51,1.17-1.42,2.45-2.69,2.37s-2-1.37-2.6-2.44a17,17,0,0,0-5.62-5.8,3,3,0,0,0-1.95-.64c-1.36.17-2,1.77-2.25,3.1L185,319c-.53,2.34-1.38,5-3.65,5.8-1.94.66-4.1-.52-5.34-2.16a6.52,6.52,0,0,1-.76-6.93c1.21-2.15,4.3-3.15,6.32-1.74a7.64,7.64,0,0,0,.35-3.31,2.62,2.62,0,0,0-2.19-2.22c-2.1-.12-2.83,2.82-4.57,4-2,1.38-4.94-.08-5.9-2.3s-.47-4.78.26-7.09a16.62,16.62,0,0,1,3-6c3.49-4.05,9.38-4.82,14.71-5.32l.69-1a25.48,25.48,0,0,0-33.56,13.12,9.13,9.13,0,0,1,6.48,3c1.78,2.18,1.76,5.89-.55,7.49-.93.64-2.07.88-3.05,1.42A5.45,5.45,0,0,0,159.41,326c2.17.19,4.47-.9,6.46,0a7.18,7.18,0,0,1,2.95,3.16l4.71,7.78c.46.76.89,1.75.4,2.45a25,25,0,0,0,3.79.29,25.48,25.48,0,0,0,25.48-25.49A26,26,0,0,0,203,311,17.18,17.18,0,0,1,201.85,314.86Z"/><path class="cls-4" d="M172.53,297.05a16.62,16.62,0,0,0-3,6c-.73,2.31-1.22,4.87-.26,7.09s3.91,3.68,5.9,2.3c1.74-1.19,2.47-4.13,4.57-4a2.62,2.62,0,0,1,2.19,2.22,7.64,7.64,0,0,1-.35,3.31c-2-1.41-5.11-.41-6.32,1.74a6.52,6.52,0,0,0,.76,6.93c1.24,1.64,3.4,2.82,5.34,2.16,2.27-.77,3.12-3.46,3.65-5.8l1.74-7.5c.3-1.33.89-2.93,2.25-3.1a3,3,0,0,1,1.95.64,17,17,0,0,1,5.62,5.8c.63,1.07,1.36,2.36,2.6,2.44s2.18-1.2,2.69-2.37A17.18,17.18,0,0,0,203,311a25.48,25.48,0,0,0-15.08-20.28l-.69,1C181.91,292.23,176,293,172.53,297.05Z"/><path class="cls-4" d="M173.53,336.86l-4.71-7.78a7.18,7.18,0,0,0-2.95-3.16c-2-.87-4.29.22-6.46,0a5.45,5.45,0,0,1-2.16-10.18c1-.54,2.12-.78,3.05-1.42,2.31-1.6,2.33-5.31.55-7.49a9.13,9.13,0,0,0-6.48-3,25.49,25.49,0,0,0,19.56,35.43C174.42,338.61,174,337.62,173.53,336.86Z"/><g class="cls-5"><path class="cls-6" d="M214.56,200.71l-.17-.15a1.45,1.45,0,0,0-2,0l-.17.15a1.63,1.63,0,0,0,1.15,2.77,1.71,1.71,0,0,0,1.4-.81,1.63,1.63,0,0,0-.25-2Z"/></g><g class="cls-5"><path class="cls-6" d="M54.09,183.78l-.15-.16a1.39,1.39,0,0,0-1.5-.28,1.35,1.35,0,0,0-.84,1.25,1.39,1.39,0,0,0,2.34,1l.15-.16a1.17,1.17,0,0,0,0-1.61Z"/></g><g class="cls-5"><path class="cls-6" d="M97.55,228.65a.74.74,0,0,0,0-1.47.74.74,0,0,0,0,1.47Z"/></g><g class="cls-5"><path class="cls-6" d="M66.16,298.25a1,1,0,0,0,0-1.89.95.95,0,0,0,0,1.89Z"/></g><g class="cls-5"><path class="cls-6" d="M141.51,287.43a1.74,1.74,0,0,0,0-3.48,1.74,1.74,0,0,0,0,3.48Z"/></g><g class="cls-5"><path class="cls-6" d="M184.84,255.22a.93.93,0,0,0,0-1.86.93.93,0,0,0,0,1.86Z"/></g><g class="cls-5"><path class="cls-6" d="M232.87,282.85a.3.3,0,0,0,0-.6.3.3,0,0,0,0,.6Z"/></g><g class="cls-5"><path class="cls-6" d="M42.92,243.42a.75.75,0,0,0,0-1.49.75.75,0,0,0,0,1.49Z"/></g><g class="cls-5"><path class="cls-6" d="M109.8,286.29a.92.92,0,0,0,0-1.84.92.92,0,0,0,0,1.84Z"/></g><g class="cls-5"><path class="cls-6" d="M150.61,240.05a.84.84,0,0,0,0-1.67.84.84,0,0,0,0,1.67Z"/></g><g class="cls-5"><path class="cls-6" d="M35.06,297.31a1.76,1.76,0,0,0,1.21,1.25,1.8,1.8,0,1,0-1.21-1.25Z"/></g><path class="cls-6" d="M171.38,181.19a.54.54,0,0,0,0-1.07.54.54,0,0,0,0,1.07Z"/><path class="cls-6" d="M18,193.42l-.36,0a1,1,0,0,0,0,2l.36,0a1,1,0,0,0,1-1c0-.51-.46-1.09-1-1Z"/><g class="cls-5"><path class="cls-6" d="M193,300.93a.8.8,0,0,0,0-1.6.8.8,0,0,0,0,1.6Z"/></g><path class="cls-6" d="M232.56,238.46a1.78,1.78,0,0,0,1.76-1.75,1.8,1.8,0,0,0-1.76-1.76,1.76,1.76,0,0,0,0,3.51Z"/><path class="cls-6" d="M214,274.69a.94.94,0,0,0,0-1.87.94.94,0,0,0,0,1.87Z"/><path class="cls-6" d="M231,313.45a1.08,1.08,0,1,0,0-2.15,1.08,1.08,0,0,0,0,2.15Z"/><g class="cls-5"><path class="cls-6" d="M273.69,270.49a1.13,1.13,0,0,0,0-2.26,1.13,1.13,0,0,0,0,2.26Z"/></g><g class="cls-5"><path class="cls-6" d="M272.44,304.39a1.12,1.12,0,0,0,0-2.24,1.12,1.12,0,0,0,0,2.24Z"/></g><g class="cls-5"><path class="cls-6" d="M322.67,288.25a.68.68,0,0,0,0-1.36.68.68,0,0,0,0,1.36Z"/></g><g class="cls-5"><path class="cls-6" d="M302.24,221.63l.23-.14a1.67,1.67,0,0,0,0-2.85l-.23-.14a1.81,1.81,0,1,0,0,3.13Z"/></g><g class="cls-5"><path class="cls-6" d="M280.6,195.69a.74.74,0,0,0,0-1.48.74.74,0,0,0,0,1.48Z"/></g><g class="cls-5"><path class="cls-6" d="M325.18,185.16a.89.89,0,0,0,0-1.78.89.89,0,0,0,0,1.78Z"/></g><g class="cls-5"><path class="cls-6" d="M199.59,174.89a.67.67,0,0,0,0-1.33.67.67,0,0,0,0,1.33Z"/></g><g class="cls-5"><path class="cls-6" d="M240.72,172.66a.32.32,0,0,0,0-.64.32.32,0,0,0,0,.64Z"/></g><g class="cls-5"><path class="cls-6" d="M242.92,94.27a1.05,1.05,0,0,0,0-2.1,1.05,1.05,0,0,0,0,2.1Z"/></g><path class="cls-6" d="M238.53,67.74a.9.9,0,0,0,0-1.79.9.9,0,0,0,0,1.79Z"/><g class="cls-5"><path class="cls-6" d="M158.46,142.23a1,1,0,0,0,0-1.94,1,1,0,0,0,0,1.94Z"/></g><g class="cls-5"><path class="cls-6" d="M63.33,141.57a1.25,1.25,0,0,0,0-2.5,1.25,1.25,0,0,0,0,2.5Z"/></g><g class="cls-5"><path class="cls-6" d="M141.69,54.43a2.62,2.62,0,0,0-.27-.59,1.74,1.74,0,0,0-3,0,2.58,2.58,0,0,0-.26.59,1.82,1.82,0,1,0,3.5,0Z"/></g><path class="cls-6" d="M96.61,47.8a1,1,0,0,0,0-2.09,1,1,0,0,0,0,2.09Z"/><g class="cls-5"><path class="cls-6" d="M158.78,13.5l-.32,0a1.25,1.25,0,0,0-1.25,1.25A1.26,1.26,0,0,0,158.46,16l.32,0a1.23,1.23,0,0,0,0-2.46Z"/></g><g class="cls-5"><path class="cls-6" d="M50.14,17.29a1,1,0,0,0,0-2,1,1,0,0,0,0,2Z"/></g><g class="cls-5"><path class="cls-6" d="M33.82,44.78a.54.54,0,0,0,0-1.08.54.54,0,0,0,0,1.08Z"/></g><g class="cls-5"><path class="cls-6" d="M28.48,16.14a.79.79,0,0,0,0-1.57.79.79,0,0,0,0,1.57Z"/></g><g class="cls-5"><path class="cls-6" d="M120.47,10.2a.81.81,0,0,0,0-1.62.81.81,0,0,0,0,1.62Z"/></g><g class="cls-5"><path class="cls-6" d="M120.47,72.76a.89.89,0,0,0,0-1.77.89.89,0,0,0,0,1.77Z"/></g><g class="cls-5"><path class="cls-6" d="M183.27,68.82a1,1,0,0,0,0-2.06,1,1,0,0,0,0,2.06Z"/></g><g class="cls-5"><path class="cls-6" d="M240.11,23.85a2.39,2.39,0,0,0-1.14-.73,1.8,1.8,0,0,0-2,.82,2,2,0,0,0-.24.89,1.74,1.74,0,0,0,.52,1.26,2.52,2.52,0,0,0,.93.55,4.57,4.57,0,0,0,.74.12,1.63,1.63,0,0,0,.86-.23,1.75,1.75,0,0,0,.7-.82,1.73,1.73,0,0,0-.36-1.86Z"/></g><g class="cls-5"><path class="cls-6" d="M60.19,75.24a.23.23,0,0,0,0-.46.23.23,0,0,0,0,.46Z"/></g><g class="cls-5"><path class="cls-6" d="M32.56,145.62a.91.91,0,0,0,0-1.81.91.91,0,0,0,0,1.81Z"/></g><g class="cls-5"><path class="cls-6" d="M72.75,162.28a.3.3,0,0,0,0-.6.3.3,0,0,0,0,.6Z"/></g><g class="cls-5"><path class="cls-6" d="M75,224a.79.79,0,0,0,0-1.58A.79.79,0,0,0,75,224Z"/></g><g class="cls-5"><path class="cls-6" d="M31.62,217.36a.43.43,0,0,0,0-.86.43.43,0,0,0,0,.86Z"/></g><g class="cls-5"><path class="cls-6" d="M129.89,256.05a.82.82,0,0,0,0-1.64.82.82,0,0,0,0,1.64Z"/></g><path class="cls-6" d="M149.33,216.87c.07-.3-.05-.09-.35.61a3,3,0,0,0,.31-.4c-.22.21-.43.42-.64.64l-.31.12h-.74a1.65,1.65,0,0,0,.43.06,1.52,1.52,0,0,0,1.21-.62,1.79,1.79,0,0,0-.14-2.31,2,2,0,0,0-2.32-.33,2,2,0,0,0-.86,2.24,1.77,1.77,0,0,0,3.41,0Z"/><g class="cls-5"><path class="cls-6" d="M283.59,156.17a2.45,2.45,0,0,0-.31-1.09,1.78,1.78,0,0,0-3,0,2.33,2.33,0,0,0-.31,1.09,1.84,1.84,0,0,0,1.82,1.82,1.86,1.86,0,0,0,1.83-1.82Z"/></g><g class="cls-5"><path class="cls-6" d="M496.26,94.65a2.28,2.28,0,0,0-.3-1.08,1.78,1.78,0,0,0-3,0,2.28,2.28,0,0,0-.3,1.08,1.83,1.83,0,0,0,.53,1.29,1.81,1.81,0,0,0,1.29.53,1.83,1.83,0,0,0,1.82-1.82Z"/></g><g class="cls-5"><path class="cls-6" d="M289.19,135.9a.82.82,0,0,0,0-1.64.82.82,0,0,0,0,1.64Z"/></g><g class="cls-5"><path class="cls-6" d="M318,136.53a.56.56,0,0,0,0-1.12.56.56,0,0,0,0,1.12Z"/></g><g class="cls-5"><path class="cls-6" d="M357.51,102a.44.44,0,0,0,0-.88.44.44,0,0,0,0,.88Z"/></g><g class="cls-5"><path class="cls-6" d="M331.67,72.76a.66.66,0,0,0,0-1.31.66.66,0,0,0,0,1.31Z"/></g><g class="cls-5"><path class="cls-6" d="M297,57.85a1.81,1.81,0,0,0,1.79-1.78A1.83,1.83,0,0,0,297,54.28a1.79,1.79,0,0,0,0,3.57Z"/></g><g class="cls-5"><path class="cls-6" d="M313.09,26.35a2,2,0,0,0,.06-.48,1.09,1.09,0,1,0-2.17,0,2,2,0,0,0,0,.48,1.08,1.08,0,0,0,2.06,0Z"/></g><g class="cls-5"><path class="cls-6" d="M264.54,45.22a1,1,0,0,0,0-2.07,1,1,0,0,0,0,2.07Z"/></g><g class="cls-5"><path class="cls-6" d="M264.24,4.93a.85.85,0,0,0,0-1.69.85.85,0,0,0,0,1.69Z"/></g><path class="cls-6" d="M202.48,29.57c0,.1,0,.19,0,.29a.86.86,0,0,0,1.65,0l.05-.29a.9.9,0,1,0-1.74,0Z"/><path class="cls-6" d="M400.88,7.09a1.84,1.84,0,0,0,1.81-1.82,1.82,1.82,0,0,0-3.63,0,1.85,1.85,0,0,0,1.82,1.82Z"/><g class="cls-5"><path class="cls-6" d="M435.33,23.32a1.12,1.12,0,0,0,0-2.23,1.12,1.12,0,0,0,0,2.23Z"/></g><g class="cls-5"><path class="cls-6" d="M430.17,43.67a1.81,1.81,0,0,0,.4-.18.58.58,0,0,0,0-1,1.81,1.81,0,0,0-.4-.18.7.7,0,1,0,0,1.35Z"/></g><g class="cls-5"><path class="cls-6" d="M366.67,11.87c0-.09,0-.19,0-.28a.84.84,0,0,0-1.61,0c0,.09,0,.19,0,.28a.88.88,0,1,0,1.69,0Z"/></g><path class="cls-6" d="M389.88,99.51l-.06-.08a1.18,1.18,0,0,0-2.21.6,1.19,1.19,0,0,0,2.21.6l.06-.09a1,1,0,0,0,0-1Z"/><g class="cls-5"><path class="cls-6" d="M375.63,128.19a.84.84,0,0,0,0-1.67.84.84,0,0,0,0,1.67Z"/></g><path class="cls-6" d="M457.51,168.58a2.15,2.15,0,0,0-1-.61,1.67,1.67,0,0,0-1.84.75,2,2,0,0,0-.24,1.12,1.91,1.91,0,0,0,.89,1.55,1.79,1.79,0,0,0,2.17-2.81Z"/><g class="cls-5"><path class="cls-6" d="M481.08,151.2a1,1,0,0,0,0-1.95,1,1,0,0,0,0,1.95Z"/></g><g class="cls-5"><path class="cls-6" d="M454,120a1.29,1.29,0,0,0,.53.6.79.79,0,0,0,1.07-1.07,1.34,1.34,0,0,0-.6-.53.74.74,0,0,0-1,1Z"/></g><g class="cls-5"><path class="cls-6" d="M493,103.57a.57.57,0,0,0,0-1.14.57.57,0,0,0,0,1.14Z"/></g><g class="cls-5"><path class="cls-6" d="M533.82,155l-.19,0a.65.65,0,1,0,0,1.26l.19,0a.63.63,0,0,0,0-1.2Z"/></g><g class="cls-5"><path class="cls-6" d="M560.47,92.9h.89l.8.47c.29.37.33.41.1.12s-.2-.23.27.51a1.8,1.8,0,0,0-1.22-1.22,1.75,1.75,0,0,0-1.7.45,1.88,1.88,0,0,0,.79,3.16,2,2,0,0,0,1.46-.2,1.81,1.81,0,0,0,.83-1.07A1.88,1.88,0,0,0,562.6,94a1.83,1.83,0,0,0-2.13-1Z"/></g><g class="cls-5"><path class="cls-6" d="M516.42,50.23h-.3a.79.79,0,0,0,0,1.57h.3a.79.79,0,0,0,0-1.58Z"/></g><g class="cls-5"><path class="cls-6" d="M559.19,26.91a.55.55,0,0,0,0-1.1.55.55,0,0,0,0,1.1Z"/></g><g class="cls-5"><path class="cls-6" d="M483.15,26.28a.81.81,0,0,0,0-1.61.81.81,0,0,0,0,1.61Z"/></g><g class="cls-5"><path class="cls-6" d="M464.69,233.43l.51.5v1.73a2.12,2.12,0,0,0,.19-1.48l0-.1c-.42-1.28,0,.4,0,.3a1.66,1.66,0,0,0-1.19-1.56,1.83,1.83,0,0,0-1.75.47,2,2,0,0,0-.5,1.9,1.74,1.74,0,0,0,1.26,1.25,2.55,2.55,0,0,0,1.1,0,1.63,1.63,0,0,0,1.19-1.38,1.69,1.69,0,0,0-.79-1.65Z"/></g><path class="cls-6" d="M520.88,263.15a1.24,1.24,0,0,0,0-2.48,1.24,1.24,0,0,0,0,2.48Z"/><g class="cls-5"><path class="cls-6" d="M560.68,236.94a.87.87,0,0,0,0-1.74.87.87,0,0,0,0,1.74Z"/></g><g class="cls-5"><path class="cls-6" d="M558.14,279.25H558a1.71,1.71,0,0,1,.23.13l-.1-.1a.65.65,0,1,0,0,.92l.1-.09-.23.13.1,0a.5.5,0,0,0,0-1Z"/></g><g class="cls-5"><path class="cls-6" d="M494.44,305.71a.14.14,0,0,0,0-.27.14.14,0,0,0,0,.27Z"/></g><g class="cls-5"><path class="cls-6" d="M446.62,292.56a.35.35,0,0,0,0-.7.35.35,0,0,0,0,.7Z"/></g><g class="cls-5"><path class="cls-6" d="M431.47,255.65a.57.57,0,0,0,0-1.14.57.57,0,0,0,0,1.14Z"/></g><g class="cls-5"><path class="cls-6" d="M384.24,309.56a1.61,1.61,0,0,0,0-3.22,1.61,1.61,0,0,0,0,3.22Z"/></g><g class="cls-5"><path class="cls-6" d="M403.85,246.69a.23.23,0,0,0,0-.45.23.23,0,0,0,0,.45Z"/></g><g class="cls-5"><path class="cls-6" d="M410.38,295.77a.89.89,0,0,0,0-1.78.89.89,0,0,0,0,1.78Z"/></g><g class="cls-5"><path class="cls-6" d="M331.89,311.94l-.16-.33v1.12l.14-.22a1.89,1.89,0,0,0-1.36-2.77,1.68,1.68,0,0,0-1.42.29,1.7,1.7,0,0,0-.64,1.27,1.92,1.92,0,0,0,2.34,2l.28-.1L330,313l.28.23a1,1,0,0,0,1.36.08,1,1,0,0,0,.26-1.33Z"/></g><g class="cls-5"><path class="cls-6" d="M469.47,314.25a1.54,1.54,0,0,0-.19-.46.8.8,0,0,0-1.36,0,1.54,1.54,0,0,0-.19.46.9.9,0,1,0,1.74,0Z"/></g><g class="cls-5"><path class="cls-6" d="M487.39,273.87h-.08a1.71,1.71,0,0,0-1.7,1.7v.08a1.8,1.8,0,0,0,1.09,1.62,1.75,1.75,0,0,0,1.94-.37,1.77,1.77,0,0,0-1.25-3Z"/></g><g class="cls-5"><path class="cls-6" d="M549.1,311.83a.91.91,0,0,0,0-1.82.91.91,0,0,0,0,1.82Z"/></g><g class="cls-5"><path class="cls-6" d="M250.46,192.61a.55.55,0,0,0,0-1.09.55.55,0,0,0,0,1.09Z"/></g><g class="cls-5"><path class="cls-6" d="M268.27,176c0-.07,0-.15-.07-.23a.62.62,0,0,0-1.18,0c0,.08,0,.16-.07.23a.69.69,0,1,0,1.32,0Z"/></g><g class="cls-5"><path class="cls-6" d="M260.7,216.21a.09.09,0,0,0,0-.18.09.09,0,0,0,0,.18Z"/></g><g class="cls-5"><path class="cls-6" d="M255.84,213a.18.18,0,0,0,0-.35.18.18,0,0,0,0,.35Z"/></g><g class="cls-5"><path class="cls-6" d="M197.49,221.3a.32.32,0,0,0,0-.63.32.32,0,0,0,0,.63Z"/></g><g class="cls-5"><path class="cls-6" d="M308.81,188.15a.44.44,0,0,0,0-.87.44.44,0,0,0,0,.87Z"/></g><g class="cls-5"><path class="cls-6" d="M320.33,205.83a.72.72,0,0,0,0-1.43.72.72,0,0,0,0,1.43Z"/></g><g class="cls-5"><path class="cls-6" d="M333.12,166.23a.78.78,0,0,0,0-1.56.78.78,0,0,0,0,1.56Z"/></g><g class="cls-5"><path class="cls-6" d="M447,154.23a.81.81,0,0,0,0-1.61.81.81,0,0,0,0,1.61Z"/></g><g class="cls-5"><path class="cls-6" d="M435.24,183.39a.29.29,0,0,0,0-.57.29.29,0,0,0,0,.57Z"/></g><g class="cls-5"><path class="cls-6" d="M475.67,207.38a.73.73,0,0,0,0-1.45.73.73,0,0,0,0,1.45Z"/></g><g class="cls-5"><path class="cls-6" d="M506.64,155.19a.75.75,0,0,0,0-1.49.75.75,0,0,0,0,1.49Z"/></g><path class="cls-6" d="M509.46,137.69a.65.65,0,0,0,0-1.29.65.65,0,0,0,0,1.29Z"/><g class="cls-5"><path class="cls-6" d="M458.53,85.83a.23.23,0,0,0,0-.45.23.23,0,0,0,0,.45Z"/></g><g class="cls-5"><path class="cls-6" d="M426.28,87.31a.43.43,0,0,0,0-.86.43.43,0,0,0,0,.86Z"/></g><g class="cls-5"><path class="cls-6" d="M545.28,84.47a.41.41,0,0,0,0-.81.41.41,0,0,0,0,.81Z"/></g><g class="cls-5"><path class="cls-6" d="M568.32,150.29a1,1,0,0,0,0-1.92,1,1,0,0,0,0,1.92Z"/></g><g class="cls-5"><path class="cls-6" d="M541.45,259.56a.45.45,0,0,0,0-.89.45.45,0,0,0,0,.89Z"/></g><g class="cls-5"><path class="cls-6" d="M518.67,289.13a.07.07,0,0,0,0-.14.07.07,0,1,0,0,.14Z"/></g><g class="cls-5"><path class="cls-6" d="M527.11,291.25a.15.15,0,0,0,0-.29.15.15,0,0,0,0,.29Z"/></g><g class="cls-5"><path class="cls-6" d="M429.86,316a.84.84,0,0,0,0-1.68.84.84,0,0,0,0,1.68Z"/></g><g class="cls-5"><path class="cls-6" d="M401.2,271.88a.74.74,0,0,0,0-1.47.74.74,0,0,0,0,1.47Z"/></g><g class="cls-5"><path class="cls-6" d="M458,273a.31.31,0,0,0,0-.62.31.31,0,0,0,0,.62Z"/></g><g class="cls-5"><path class="cls-6" d="M354.88,296.4a1,1,0,0,0,0-1.89.95.95,0,0,0,0,1.89Z"/></g><path class="cls-6" d="M188.58,231.27l-.28,0a.52.52,0,0,0,0,1l.28,0a.59.59,0,0,0,.73-.56.59.59,0,0,0-.73-.55Z"/><g class="cls-5"><path class="cls-6" d="M298.58,271.88a.23.23,0,0,0,0-.45.23.23,0,0,0,0,.45Z"/></g><g class="cls-5"><path class="cls-6" d="M334.15,225.56a.74.74,0,0,0,0-1.48.74.74,0,0,0,0,1.48Z"/></g><g class="cls-5"><path class="cls-6" d="M273,239.07l-.25,0a.88.88,0,0,0-.89.88.9.9,0,0,0,.89.89l.25,0a.86.86,0,1,0,0-1.71Z"/></g><g class="cls-5"><path class="cls-6" d="M246.37,265.35a.61.61,0,0,0,0-1.21.61.61,0,0,0,0,1.21Z"/></g><g class="cls-5"><path class="cls-6" d="M253,297.22a.74.74,0,0,0,0-1.48.74.74,0,0,0,0,1.48Z"/></g><g class="cls-5"><path class="cls-6" d="M171.38,283.82a.39.39,0,0,0,0-.78.39.39,0,0,0,0,.78Z"/></g><g class="cls-5"><path class="cls-6" d="M166.26,245.11a.59.59,0,0,0,0-1.17.59.59,0,0,0,0,1.17Z"/></g><g class="cls-5"><path class="cls-6" d="M181.36,209.34a.39.39,0,0,0,0-.77.39.39,0,0,0,0,.77Z"/></g><g class="cls-5"><path class="cls-6" d="M117.38,236.12a.55.55,0,0,0,0-1.1.55.55,0,0,0,0,1.1Z"/></g><g class="cls-5"><path class="cls-6" d="M100.24,264.11a.9.9,0,0,0,0-1.8.9.9,0,0,0,0,1.8Z"/></g><g class="cls-5"><path class="cls-6" d="M91.79,315.7a.8.8,0,0,0,0-1.59.8.8,0,0,0,0,1.59Z"/></g><path class="cls-6" d="M17.83,284.07a1,1,0,0,0,0-2.06,1,1,0,0,0,0,2.06Z"/><g class="cls-5"><path class="cls-6" d="M52.14,212.48c.26-.42.51-.85.77-1.28a.91.91,0,1,0-1.57-.91l-.77,1.28a.92.92,0,0,0,.33,1.24.91.91,0,0,0,1.24-.33Z"/></g><path class="cls-6" d="M521.28,176.58a1.83,1.83,0,0,0,0-3.65,1.83,1.83,0,0,0,0,3.65Z"/><circle class="cls-7" cx="529.27" cy="129.56" r="11.31" transform="translate(63.41 412.2) rotate(-45)"/><path class="cls-8" d="M38.22,52.41A11.32,11.32,0,1,1,26.9,41.09,11.31,11.31,0,0,1,38.22,52.41Z"/><path class="cls-6" d="M15.94,55.81c-3-.67-3.56,3.18-1.65,4.87,3.17,2.82,10.08.08,13.4-1.16,4.36-1.62,8.57-4.28,11-8.38,1.41-2.41,1.88-7.17-2.12-7.09a.23.23,0,0,0,0,.46c2.74,1.82,3.41,3.82,2,6a9.87,9.87,0,0,1-1,1.55,16.86,16.86,0,0,1-2.13,2.42,21.46,21.46,0,0,1-5.7,3.74,34,34,0,0,1-6.12,2.09c-.9.23-1.81.43-2.73.59a25.27,25.27,0,0,1-2.88.41q-5.21.38-2-5.25a.13.13,0,0,0,0-.25Z"/></svg>