<?xml version="1.0" encoding="utf-8"?>
<!-- Generator: Adobe Illustrator 25.2.1, SVG Export Plug-In . SVG Version: 6.00 Build 0)  -->
<svg version="1.1" xmlns="http://www.w3.org/2000/svg" xmlns:xlink="http://www.w3.org/1999/xlink" x="0px" y="0px"
	 viewBox="0 0 573.55 339.31" style="enable-background:new 0 0 573.55 339.31;" xml:space="preserve">
<style type="text/css">
	.st0{display:none;}
	.st1{display:inline;fill:#FFFFFF;}
	.st2{opacity:0.35;fill:#EAC689;}
	.st3{opacity:0.35;}
	.st4{fill:#C49C62;}
	.st5{fill:#EAC689;}
	.st6{fill:#BCE2F0;}
	.st7{fill:#65B37B;}
	.st8{fill:#A0A8A8;}
	.st9{opacity:0.22;clip-path:url(#SVGID_2_);fill:#FEFFFF;}
	.st10{clip-path:url(#SVGID_2_);fill:#E3E8E8;}
	.st11{clip-path:url(#SVGID_2_);}
	.st12{fill:#E7BC90;}
	.st13{fill:#D47541;}
	.st14{fill:#D88773;}
	.st15{fill:#0C112C;}
	.st16{opacity:0.22;}
	.st17{fill:#D78142;}
	.st18{fill:#FEFFFF;}
	.st19{fill:#CBD1D1;}
	.st20{fill:#E3E8E8;}
	.st21{fill:#1F2F6E;}
	.st22{opacity:0.21;fill:#FEFFFF;}
	.st23{fill:#FFFFFF;}
	.st24{fill:#EBBB2C;}
	.st25{fill:#5665C7;}
	.st26{fill:#ECECEA;}
	.st27{fill:#382D7C;}
	.st28{opacity:0.31;}
	.st29{clip-path:url(#SVGID_4_);fill:#5665C7;}
	.st30{opacity:0.32;}
	.st31{fill:#3C37B2;}
	.st32{opacity:0.12;}
	.st33{opacity:0.35;fill:#7EA1F4;}
	.st34{fill:#CD6E95;}
</style>
<g id="Background" class="st0">
	<rect x="-85.42" y="-82.64" class="st1" width="750" height="500"/>
</g>
<g id="Objects">
	<path class="st2" d="M177.16,28.7l1.74,1.83c0.13,0.13,0.31,0.2,0.5,0.17l2.5-0.4c0.46-0.07,0.81,0.42,0.59,0.83l-1.21,2.22
		c-0.09,0.16-0.09,0.36-0.01,0.53l1.15,2.25c0.21,0.42-0.15,0.9-0.61,0.81l-2.49-0.46c-0.18-0.03-0.37,0.02-0.5,0.16l-1.79,1.79
		c-0.33,0.33-0.9,0.14-0.96-0.33l-0.33-2.51c-0.02-0.18-0.14-0.34-0.3-0.43l-2.25-1.15c-0.42-0.21-0.41-0.81,0.01-1.01l2.28-1.09
		c0.17-0.08,0.29-0.24,0.31-0.42l0.4-2.5C176.27,28.54,176.84,28.36,177.16,28.7z"/>
	<path class="st2" d="M541.28,65.65l-0.06,1.7c0,0.12,0.05,0.24,0.15,0.32l1.37,1.01c0.25,0.19,0.18,0.58-0.12,0.67L541,69.82
		c-0.12,0.03-0.22,0.13-0.25,0.25l-0.54,1.61c-0.1,0.3-0.5,0.35-0.68,0.09l-0.95-1.41c-0.07-0.1-0.19-0.17-0.31-0.17l-1.7-0.01
		c-0.32,0-0.49-0.36-0.3-0.61l1.04-1.34c0.08-0.1,0.1-0.23,0.06-0.35l-0.51-1.62c-0.1-0.3,0.2-0.58,0.49-0.47l1.6,0.58
		c0.12,0.04,0.25,0.02,0.35-0.05l1.38-0.99C540.94,65.14,541.29,65.33,541.28,65.65z"/>
	<path class="st2" d="M318.54,244.24l-0.06,1.7c0,0.12,0.05,0.24,0.15,0.32l1.37,1.01c0.25,0.19,0.18,0.58-0.12,0.67l-1.63,0.47
		c-0.12,0.04-0.22,0.13-0.26,0.25l-0.54,1.61c-0.1,0.3-0.5,0.35-0.68,0.09l-0.95-1.41c-0.07-0.1-0.19-0.17-0.31-0.17l-1.7-0.01
		c-0.32,0-0.49-0.37-0.3-0.61l1.05-1.34c0.08-0.1,0.1-0.23,0.06-0.35l-0.51-1.62c-0.1-0.3,0.2-0.58,0.49-0.47l1.6,0.58
		c0.12,0.04,0.25,0.02,0.35-0.05l1.38-0.99C318.2,243.73,318.55,243.92,318.54,244.24z"/>
	<path class="st2" d="M5.1,237.1l-0.06,1.7c0,0.12,0.05,0.24,0.15,0.32l1.37,1.01c0.25,0.19,0.18,0.58-0.12,0.67l-1.64,0.47
		c-0.12,0.04-0.22,0.13-0.25,0.25l-0.54,1.62c-0.1,0.3-0.5,0.35-0.68,0.09l-0.95-1.41c-0.07-0.1-0.19-0.17-0.31-0.17l-1.7-0.01
		c-0.31,0-0.49-0.37-0.3-0.61l1.04-1.34c0.08-0.1,0.1-0.23,0.06-0.35l-0.51-1.62c-0.1-0.3,0.2-0.58,0.49-0.47l1.6,0.58
		c0.12,0.04,0.25,0.02,0.35-0.05l1.38-0.99C4.76,236.6,5.11,236.79,5.1,237.1z"/>
	<path class="st2" d="M499.76,184.21l-0.06,1.7c0,0.12,0.05,0.24,0.15,0.32l1.37,1.01c0.25,0.19,0.18,0.58-0.12,0.67l-1.63,0.47
		c-0.12,0.04-0.22,0.13-0.26,0.25l-0.54,1.62c-0.1,0.3-0.5,0.35-0.67,0.09l-0.95-1.41c-0.07-0.1-0.19-0.17-0.31-0.17l-1.7-0.01
		c-0.32,0-0.49-0.37-0.3-0.61l1.05-1.34c0.08-0.1,0.1-0.23,0.06-0.35l-0.51-1.62c-0.09-0.3,0.2-0.58,0.49-0.47l1.6,0.58
		c0.12,0.04,0.25,0.02,0.35-0.05l1.38-0.99C499.42,183.71,499.77,183.9,499.76,184.21z"/>
	<path class="st2" d="M255.34,129.95l-0.06,1.7c0,0.12,0.05,0.24,0.15,0.32l1.37,1.01c0.25,0.19,0.18,0.58-0.12,0.67l-1.64,0.47
		c-0.12,0.03-0.22,0.13-0.26,0.25l-0.54,1.61c-0.1,0.3-0.5,0.35-0.68,0.09l-0.95-1.41c-0.07-0.1-0.19-0.17-0.31-0.17l-1.7-0.01
		c-0.32,0-0.49-0.37-0.3-0.61l1.04-1.34c0.08-0.1,0.1-0.23,0.06-0.35l-0.51-1.62c-0.1-0.3,0.2-0.58,0.49-0.47l1.6,0.58
		c0.12,0.04,0.25,0.02,0.35-0.05l1.38-0.99C254.99,129.45,255.35,129.64,255.34,129.95z"/>
	<g class="st3">
		<path class="st4" d="M287.3,110.74c3.04-0.85,5.96-2,8.88-3.14c2.7-2.47,4.73-5.6,5.88-9.07c-1.04,0.37-2.06,0.73-3.04,1.09
			c-4.25,1.55-8.57,2.9-12.96,3.97c-6.64,1.62-13.23,2.54-19.91,2.92c3.06,3.23,7.08,5.46,11.5,6.31
			C280.89,112.3,284.11,111.62,287.3,110.74z"/>
		<path class="st4" d="M277.48,70.73c-3.28,0.66-6.24,2.04-8.74,3.94c5.79-2.07,12.17-3.15,18.28-3.7
			C284,70.2,280.75,70.07,277.48,70.73z"/>
		<path class="st4" d="M296.67,76.39c-1.47-1.43-3.13-2.64-4.94-3.59c-4.85,0.52-9.64,1.39-14.36,2.7
			c-4.77,1.33-9.26,3.42-13.92,5.01c-1.23,1.99-2.13,4.18-2.66,6.49c6.59-3.54,13.62-6.25,20.88-8.08
			C286.6,77.66,291.62,76.83,296.67,76.39z"/>
		<path class="st4" d="M302.18,85.35c-0.65-2.08-1.59-4-2.77-5.72c-0.46,0.02-0.91,0.03-1.37,0.06C293,80.04,288,80.8,283.08,81.96
			c-8,1.88-15.55,4.8-22.77,8.54c-0.1,1.8,0.02,3.64,0.39,5.49c0.06,0.29,0.12,0.57,0.19,0.85c7.19-3.05,15.19-4.83,22.63-6.76
			C289.54,88.51,295.87,86.55,302.18,85.35z"/>
		<path class="st4" d="M299.64,95.45c1.14-0.45,2.28-0.96,3.41-1.49c0.15-1.48,0.15-2.98-0.02-4.51
			c-6.25,1.44-12.73,2.37-18.86,3.87c-7.46,1.82-14.99,4.41-22.58,5.85c0.62,1.7,1.45,3.28,2.44,4.72
			c7.19-0.74,14.39-2.06,21.32-3.85C290.19,98.78,294.98,97.27,299.64,95.45z"/>
		<path class="st5" d="M298.04,79.69c0.45-0.03,0.91-0.05,1.37-0.06c-0.81-1.18-1.72-2.26-2.74-3.24
			c-5.06,0.44-10.07,1.27-14.99,2.52c-7.25,1.83-14.29,4.55-20.88,8.08c-0.26,1.14-0.43,2.31-0.5,3.51
			c7.22-3.74,14.77-6.66,22.77-8.54C288,80.8,293,80.04,298.04,79.69z"/>
		<path class="st5" d="M303.03,89.45c-0.07-0.64-0.16-1.28-0.29-1.92c-0.15-0.74-0.34-1.47-0.56-2.18
			c-6.31,1.2-12.65,3.16-18.67,4.72c-7.44,1.93-15.45,3.71-22.63,6.76c0.19,0.8,0.43,1.58,0.7,2.33c7.59-1.45,15.12-4.03,22.58-5.85
			C290.3,91.82,296.78,90.88,303.03,89.45z"/>
		<path class="st5" d="M299.02,99.61c0.98-0.36,2.01-0.72,3.04-1.09c0.49-1.47,0.83-3,0.99-4.57c-1.13,0.53-2.27,1.05-3.41,1.49
			c-4.67,1.83-9.45,3.34-14.3,4.59c-6.92,1.79-14.12,3.12-21.32,3.85c0.64,0.93,1.35,1.8,2.12,2.61c6.68-0.38,13.27-1.29,19.91-2.92
			C290.45,102.51,294.77,101.16,299.02,99.61z"/>
		<path class="st5" d="M277.65,112.82c2.67,0.52,5.47,0.54,8.3-0.03c3.96-0.8,7.45-2.64,10.23-5.19c-2.92,1.14-5.85,2.29-8.88,3.14
			C284.11,111.62,280.89,112.3,277.65,112.82z"/>
		<path class="st5" d="M291.74,72.8c-1.48-0.79-3.07-1.4-4.71-1.82c-6.11,0.55-12.49,1.63-18.28,3.7c-2.12,1.61-3.9,3.59-5.28,5.83
			c4.66-1.59,9.14-3.68,13.92-5.01C282.09,74.18,286.88,73.31,291.74,72.8z"/>
	</g>
	<g class="st3">
		<path class="st6" d="M201.85,314.86c-0.51,1.17-1.42,2.46-2.7,2.37c-1.24-0.08-1.97-1.37-2.6-2.45c-1.37-2.34-3.32-4.35-5.62-5.8
			c-0.59-0.37-1.26-0.72-1.96-0.63c-1.35,0.17-1.94,1.77-2.25,3.1c-0.58,2.5-1.15,5-1.73,7.5c-0.54,2.33-1.39,5.02-3.65,5.79
			c-1.94,0.66-4.11-0.52-5.34-2.15c-1.48-1.96-1.97-4.79-0.76-6.94c1.21-2.14,4.31-3.15,6.33-1.74c0.28-1.08,0.55-2.21,0.34-3.31
			c-0.21-1.1-1.07-2.16-2.18-2.22c-2.1-0.12-2.83,2.82-4.57,4.01c-1.99,1.37-4.94-0.08-5.9-2.3c-0.96-2.22-0.47-4.78,0.26-7.09
			c0.67-2.14,1.55-4.26,3.01-5.96c3.49-4.06,9.38-4.83,14.71-5.33l0.69-0.97c-3.13-1.37-6.58-2.14-10.22-2.14
			c-10.44,0-19.4,6.28-23.34,15.26c2.47,0.2,4.94,1.08,6.48,2.97c1.78,2.18,1.76,5.89-0.56,7.49c-0.92,0.64-2.06,0.88-3.04,1.42
			c-2.01,1.12-3.15,3.63-2.67,5.88c0.48,2.26,2.54,4.08,4.83,4.29c2.17,0.2,4.46-0.89,6.46-0.03c1.35,0.58,2.19,1.91,2.95,3.17
			c1.57,2.59,3.14,5.19,4.71,7.78c0.46,0.75,0.89,1.75,0.4,2.45c1.23,0.18,2.5,0.28,3.78,0.28c14.08,0,25.49-11.41,25.49-25.49
			c0-1.04-0.07-2.06-0.19-3.07C202.77,312.35,202.39,313.63,201.85,314.86z"/>
		<path class="st7" d="M172.53,297.05c-1.46,1.7-2.34,3.82-3.01,5.96c-0.72,2.31-1.22,4.87-0.26,7.09c0.96,2.22,3.92,3.68,5.9,2.3
			c1.73-1.2,2.47-4.13,4.57-4.01c1.12,0.06,1.97,1.12,2.18,2.22c0.21,1.1-0.07,2.23-0.34,3.31c-2.02-1.41-5.12-0.41-6.33,1.74
			c-1.21,2.14-0.72,4.97,0.76,6.94c1.24,1.64,3.4,2.81,5.34,2.15c2.26-0.77,3.12-3.46,3.65-5.79c0.58-2.5,1.15-5,1.73-7.5
			c0.31-1.33,0.9-2.93,2.25-3.1c0.69-0.09,1.36,0.26,1.96,0.63c2.3,1.45,4.24,3.46,5.62,5.8c0.63,1.07,1.36,2.37,2.6,2.45
			c1.28,0.08,2.19-1.2,2.7-2.37c0.53-1.22,0.92-2.51,1.16-3.82c-1.09-9.11-6.99-16.73-15.08-20.28l-0.69,0.97
			C181.91,292.23,176.02,293,172.53,297.05z"/>
		<path class="st7" d="M173.53,336.86c-1.57-2.59-3.14-5.19-4.71-7.78c-0.76-1.25-1.6-2.58-2.95-3.17c-2-0.86-4.29,0.23-6.46,0.03
			c-2.3-0.21-4.35-2.03-4.83-4.29c-0.48-2.26,0.66-4.76,2.67-5.88c0.98-0.55,2.12-0.79,3.04-1.42c2.32-1.6,2.34-5.31,0.56-7.49
			c-1.55-1.9-4.01-2.78-6.48-2.97c-1.37,3.13-2.14,6.59-2.14,10.23c0,12.79,9.42,23.38,21.7,25.2
			C174.42,338.61,173.99,337.62,173.53,336.86z"/>
	</g>
	<g class="st3">
		<g class="st32">
			<path class="st23" d="M214.56,200.71c-0.06-0.05-0.11-0.1-0.17-0.14c-0.61-0.51-1.34-0.52-1.95,0c-0.06,0.05-0.11,0.1-0.17,0.14
				c-0.49,0.42-0.57,1.22-0.34,1.77c0.24,0.57,0.84,1.03,1.48,1c0.57-0.03,1.11-0.3,1.4-0.8
				C215.15,202.1,215.1,201.16,214.56,200.71L214.56,200.71z"/>
		</g>
		<g class="st32">
			<path class="st23" d="M54.09,183.78c-0.05-0.05-0.1-0.11-0.15-0.16c-0.4-0.38-0.98-0.5-1.49-0.28c-0.48,0.2-0.86,0.71-0.84,1.25
				c0.05,1.18,1.45,1.81,2.33,0.97c0.05-0.05,0.1-0.11,0.15-0.16C54.52,184.95,54.52,184.23,54.09,183.78L54.09,183.78z"/>
		</g>
		<g class="st32">
			<path class="st23" d="M97.55,228.65c0.94,0,0.94-1.46,0-1.46C96.61,227.18,96.61,228.65,97.55,228.65L97.55,228.65z"/>
		</g>
		<g class="st32">
			<path class="st23" d="M66.16,298.25c1.21,0,1.22-1.89,0-1.89C64.94,296.36,64.94,298.25,66.16,298.25L66.16,298.25z"/>
		</g>
		<g class="st32">
			<path class="st23" d="M141.51,287.43c2.24,0,2.24-3.48,0-3.48C139.27,283.95,139.26,287.43,141.51,287.43L141.51,287.43z"/>
		</g>
		<g class="st32">
			<path class="st23" d="M184.84,255.22c1.2,0,1.2-1.86,0-1.86C183.64,253.36,183.64,255.22,184.84,255.22L184.84,255.22z"/>
		</g>
		<g class="st32">
			<path class="st23" d="M232.87,282.85c0.39,0,0.39-0.6,0-0.6C232.49,282.25,232.49,282.85,232.87,282.85L232.87,282.85z"/>
		</g>
		<g class="st32">
			<path class="st23" d="M42.92,243.42c0.96,0,0.96-1.49,0-1.49C41.96,241.93,41.96,243.42,42.92,243.42L42.92,243.42z"/>
		</g>
		<g class="st32">
			<path class="st23" d="M109.8,286.29c1.19,0,1.19-1.84,0-1.84C108.61,284.45,108.61,286.29,109.8,286.29L109.8,286.29z"/>
		</g>
		<g class="st32">
			<path class="st23" d="M150.61,240.05c1.07,0,1.07-1.67,0-1.67C149.54,238.38,149.54,240.05,150.61,240.05L150.61,240.05z"/>
		</g>
		<g class="st32">
			<path class="st23" d="M35.06,297.31c0.2,0.63,0.58,1.05,1.21,1.25c0.95,0.3,2.01-0.28,2.27-1.25c0.3-1.09-0.56-2.34-1.74-2.29
				C35.67,295.08,34.69,296.15,35.06,297.31L35.06,297.31z"/>
		</g>
		<g>
			<path class="st23" d="M171.38,181.19c0.69,0,0.69-1.07,0-1.07C170.7,180.12,170.69,181.19,171.38,181.19L171.38,181.19z"/>
		</g>
		<g>
			<path class="st23" d="M17.99,193.42c-0.12,0.01-0.24,0.02-0.36,0.04c-0.51,0.05-1.01,0.42-0.99,0.99
				c0.03,0.58,0.44,0.93,0.99,0.99c0.12,0.01,0.24,0.02,0.36,0.04c0.53,0.05,1.05-0.51,1.02-1.02
				C18.99,193.94,18.56,193.36,17.99,193.42L17.99,193.42z"/>
		</g>
		<g class="st32">
			<path class="st23" d="M193,300.93c1.04,0,1.04-1.61,0-1.61C191.96,299.33,191.96,300.93,193,300.93L193,300.93z"/>
		</g>
		<g>
			<path class="st23" d="M232.56,238.46c0.92,0,1.8-0.81,1.76-1.75c-0.04-0.95-0.77-1.76-1.76-1.76c-0.92,0-1.8,0.81-1.76,1.76
				C230.85,237.66,231.58,238.46,232.56,238.46L232.56,238.46z"/>
		</g>
		<g>
			<path class="st23" d="M214.04,274.69c1.2,0,1.21-1.87,0-1.87C212.83,272.82,212.83,274.69,214.04,274.69L214.04,274.69z"/>
		</g>
		<g>
			<path class="st23" d="M230.99,313.45c0.56,0,1.1-0.49,1.07-1.08c-0.03-0.58-0.47-1.08-1.07-1.08c-0.56,0-1.1,0.5-1.08,1.08
				C229.94,312.96,230.39,313.45,230.99,313.45L230.99,313.45z"/>
		</g>
		<g class="st32">
			<path class="st23" d="M273.69,270.49c1.46,0,1.46-2.27,0-2.27C272.23,268.23,272.23,270.49,273.69,270.49L273.69,270.49z"/>
		</g>
		<g class="st32">
			<path class="st23" d="M272.44,304.39c1.44,0,1.44-2.24,0-2.24C271,302.15,270.99,304.39,272.44,304.39L272.44,304.39z"/>
		</g>
		<g class="st32">
			<path class="st23" d="M322.67,288.25c0.88,0,0.88-1.36,0-1.36C321.8,286.89,321.79,288.25,322.67,288.25L322.67,288.25z"/>
		</g>
		<g class="st32">
			<path class="st23" d="M302.24,221.63c0.08-0.05,0.16-0.09,0.23-0.14c1.07-0.64,1.07-2.21,0-2.85c-0.08-0.05-0.15-0.09-0.23-0.14
				c-1.18-0.71-2.73,0.2-2.73,1.57C299.51,221.43,301.05,222.34,302.24,221.63L302.24,221.63z"/>
		</g>
		<g class="st32">
			<path class="st23" d="M280.6,195.69c0.95,0,0.95-1.48,0-1.48C279.65,194.21,279.65,195.69,280.6,195.69L280.6,195.69z"/>
		</g>
		<g class="st32">
			<path class="st23" d="M325.18,185.16c1.15,0,1.15-1.78,0-1.78C324.03,183.38,324.03,185.16,325.18,185.16L325.18,185.16z"/>
		</g>
		<g class="st32">
			<path class="st23" d="M199.59,174.89c0.86,0,0.86-1.33,0-1.33C198.74,173.56,198.74,174.89,199.59,174.89L199.59,174.89z"/>
		</g>
		<g class="st32">
			<path class="st23" d="M240.72,172.66c0.41,0,0.42-0.64,0-0.64C240.31,172.02,240.31,172.66,240.72,172.66L240.72,172.66z"/>
		</g>
		<g class="st32">
			<path class="st23" d="M242.92,94.27c1.35,0,1.35-2.09,0-2.09C241.58,92.17,241.57,94.27,242.92,94.27L242.92,94.27z"/>
		</g>
		<g>
			<path class="st23" d="M238.53,67.74c1.15,0,1.15-1.78,0-1.78C237.38,65.96,237.38,67.74,238.53,67.74L238.53,67.74z"/>
		</g>
		<g class="st32">
			<path class="st23" d="M158.46,142.23c1.25,0,1.25-1.95,0-1.95C157.21,140.29,157.21,142.23,158.46,142.23L158.46,142.23z"/>
		</g>
		<g class="st32">
			<path class="st23" d="M63.33,141.57c1.61,0,1.61-2.5,0-2.5C61.72,139.07,61.72,141.57,63.33,141.57L63.33,141.57z"/>
		</g>
		<g class="st32">
			<path class="st23" d="M141.69,54.43c-0.07-0.2-0.15-0.42-0.26-0.6c-0.74-1.11-2.23-1.11-2.97,0c-0.12,0.18-0.19,0.4-0.26,0.6
				c-0.4,1.13,0.64,2.3,1.75,2.3C141.05,56.73,142.09,55.56,141.69,54.43L141.69,54.43z"/>
		</g>
		<g>
			<path class="st23" d="M96.61,47.8c1.35,0,1.35-2.09,0-2.09C95.26,45.71,95.26,47.8,96.61,47.8L96.61,47.8z"/>
		</g>
		<g class="st32">
			<path class="st23" d="M158.78,13.5c-0.11-0.01-0.21-0.01-0.31-0.02c-0.65-0.05-1.28,0.61-1.25,1.25c0.03,0.64,0.55,1.3,1.25,1.25
				c0.1-0.01,0.21-0.01,0.31-0.02c0.64-0.04,1.26-0.53,1.23-1.23C159.97,14.02,159.47,13.55,158.78,13.5L158.78,13.5z"/>
		</g>
		<g class="st32">
			<path class="st23" d="M50.14,17.29c1.27,0,1.27-1.98,0-1.98C48.87,15.31,48.87,17.29,50.14,17.29L50.14,17.29z"/>
		</g>
		<g class="st32">
			<path class="st23" d="M33.82,44.78c0.7,0,0.7-1.08,0-1.08C33.12,43.7,33.12,44.78,33.82,44.78L33.82,44.78z"/>
		</g>
		<g class="st32">
			<path class="st23" d="M28.48,16.14c1.01,0,1.01-1.56,0-1.56C27.47,14.57,27.47,16.14,28.48,16.14L28.48,16.14z"/>
		</g>
		<g class="st32">
			<path class="st23" d="M120.47,10.2c1.04,0,1.05-1.62,0-1.62C119.43,8.58,119.43,10.2,120.47,10.2L120.47,10.2z"/>
		</g>
		<g class="st32">
			<path class="st23" d="M120.47,72.76c1.14,0,1.14-1.77,0-1.77C119.33,70.99,119.33,72.76,120.47,72.76L120.47,72.76z"/>
		</g>
		<g class="st32">
			<path class="st23" d="M183.27,68.82c1.33,0,1.33-2.06,0-2.06C181.94,66.76,181.94,68.82,183.27,68.82L183.27,68.82z"/>
		</g>
		<g class="st32">
			<path class="st23" d="M240.11,23.85c-0.31-0.36-0.7-0.59-1.15-0.73c-0.72-0.22-1.65,0.14-2.01,0.82
				c-0.15,0.28-0.23,0.58-0.24,0.9c-0.02,0.4,0.2,1,0.52,1.26c0.31,0.25,0.55,0.44,0.94,0.55c0.24,0.07,0.49,0.09,0.73,0.12
				c0.26,0.03,0.64-0.1,0.86-0.23c0.32-0.19,0.56-0.48,0.7-0.82C240.74,25.05,240.58,24.37,240.11,23.85L240.11,23.85z"/>
		</g>
		<g class="st32">
			<path class="st23" d="M60.19,75.24c0.3,0,0.3-0.47,0-0.47C59.89,74.78,59.89,75.24,60.19,75.24L60.19,75.24z"/>
		</g>
		<g class="st32">
			<path class="st23" d="M32.56,145.62c1.17,0,1.17-1.81,0-1.81C31.39,143.81,31.39,145.62,32.56,145.62L32.56,145.62z"/>
		</g>
		<g class="st32">
			<path class="st23" d="M72.75,162.28c0.39,0,0.39-0.6,0-0.6C72.36,161.68,72.36,162.28,72.75,162.28L72.75,162.28z"/>
		</g>
		<g class="st32">
			<path class="st23" d="M74.95,224c1.02,0,1.02-1.58,0-1.58C73.93,222.42,73.93,224,74.95,224L74.95,224z"/>
		</g>
		<g class="st32">
			<path class="st23" d="M31.62,217.36c0.56,0,0.56-0.86,0-0.86C31.06,216.5,31.06,217.36,31.62,217.36L31.62,217.36z"/>
		</g>
		<g class="st32">
			<path class="st23" d="M129.89,256.05c1.05,0,1.06-1.64,0-1.64C128.84,254.41,128.84,256.05,129.89,256.05L129.89,256.05z"/>
		</g>
		<g>
			<path class="st23" d="M149.33,216.87c0.06-0.3-0.06-0.1-0.36,0.61c0.12-0.13,0.22-0.26,0.31-0.41c-0.21,0.21-0.43,0.43-0.64,0.64
				c-0.1,0.04-0.21,0.08-0.31,0.12c-0.24,0-0.49,0-0.73-0.01c0.09,0.04,0.33,0.06,0.43,0.06c0.49,0,0.92-0.25,1.21-0.62
				c0.52-0.67,0.47-1.71-0.15-2.31c-0.61-0.59-1.56-0.76-2.31-0.33c-0.8,0.47-1.03,1.38-0.86,2.24c0.14,0.73,0.98,1.33,1.71,1.3
				C148.36,218.14,149.19,217.65,149.33,216.87L149.33,216.87z"/>
		</g>
		<g class="st32">
			<path class="st23" d="M283.59,156.17c-0.04-0.41-0.08-0.73-0.3-1.09c-0.71-1.14-2.32-1.14-3.04,0c-0.22,0.35-0.26,0.68-0.3,1.09
				c-0.05,0.43,0.24,0.99,0.53,1.29c0.32,0.32,0.83,0.55,1.29,0.53C282.66,157.95,283.69,157.18,283.59,156.17L283.59,156.17z"/>
		</g>
		<g class="st32">
			<path class="st23" d="M496.26,94.65c-0.04-0.41-0.08-0.73-0.3-1.08c-0.71-1.14-2.32-1.14-3.04,0c-0.22,0.35-0.26,0.68-0.3,1.08
				c-0.05,0.44,0.24,0.99,0.53,1.29c0.32,0.32,0.83,0.55,1.29,0.53C495.34,96.43,496.37,95.67,496.26,94.65L496.26,94.65z"/>
		</g>
		<g class="st32">
			<path class="st23" d="M289.19,135.9c1.05,0,1.06-1.64,0-1.64C288.14,134.26,288.13,135.9,289.19,135.9L289.19,135.9z"/>
		</g>
		<g class="st32">
			<path class="st23" d="M318,136.53c0.72,0,0.73-1.13,0-1.13C317.28,135.41,317.28,136.53,318,136.53L318,136.53z"/>
		</g>
		<g class="st32">
			<path class="st23" d="M357.51,101.95c0.56,0,0.57-0.88,0-0.88C356.94,101.07,356.94,101.95,357.51,101.95L357.51,101.95z"/>
		</g>
		<g class="st32">
			<path class="st23" d="M331.67,72.76c0.84,0,0.84-1.3,0-1.3C330.83,71.46,330.83,72.76,331.67,72.76L331.67,72.76z"/>
		</g>
		<g class="st32">
			<path class="st23" d="M297.01,57.85c0.93,0,1.83-0.82,1.78-1.78c-0.04-0.97-0.78-1.78-1.78-1.78c-0.93,0-1.83,0.82-1.79,1.78
				C295.27,57.03,296.01,57.85,297.01,57.85L297.01,57.85z"/>
		</g>
		<g class="st32">
			<path class="st23" d="M313.09,26.35c0.04-0.16,0.06-0.32,0.06-0.48c-0.02-0.57-0.49-1.11-1.09-1.09
				c-0.6,0.03-1.07,0.48-1.09,1.09c0,0.16,0.02,0.32,0.06,0.48C311.26,27.37,312.87,27.37,313.09,26.35L313.09,26.35z"/>
		</g>
		<g class="st32">
			<path class="st23" d="M264.54,45.22c1.33,0,1.33-2.06,0-2.06C263.21,43.15,263.21,45.22,264.54,45.22L264.54,45.22z"/>
		</g>
		<g class="st32">
			<path class="st23" d="M264.24,4.93c1.08,0,1.08-1.68,0-1.68C263.16,3.24,263.16,4.93,264.24,4.93L264.24,4.93z"/>
		</g>
		<g>
			<path class="st23" d="M202.48,29.57c0.01,0.1,0.03,0.19,0.04,0.29c0.12,0.82,1.53,0.82,1.65,0c0.01-0.1,0.03-0.19,0.04-0.29
				c0.08-0.57-0.24-1.14-0.87-1.14C202.72,28.43,202.4,29,202.48,29.57L202.48,29.57z"/>
		</g>
		<g>
			<path class="st23" d="M400.88,7.09c0.95,0,1.86-0.83,1.81-1.81c-0.04-0.98-0.8-1.81-1.81-1.81c-0.95,0-1.86,0.83-1.81,1.81
				C399.11,6.26,399.86,7.09,400.88,7.09L400.88,7.09z"/>
		</g>
		<g class="st32">
			<path class="st23" d="M435.33,23.32c1.43,0,1.43-2.22,0-2.22C433.9,21.09,433.9,23.32,435.33,23.32L435.33,23.32z"/>
		</g>
		<g class="st32">
			<path class="st23" d="M430.17,43.67c0.14-0.05,0.27-0.1,0.4-0.18c0.37-0.24,0.37-0.74,0-0.99c-0.12-0.08-0.26-0.13-0.4-0.18
				c-0.44-0.16-0.89,0.25-0.89,0.68C429.28,43.43,429.74,43.83,430.17,43.67L430.17,43.67z"/>
		</g>
		<g class="st32">
			<path class="st23" d="M366.67,11.87c-0.01-0.1-0.03-0.19-0.04-0.29c-0.12-0.8-1.49-0.8-1.61,0c-0.01,0.1-0.03,0.19-0.04,0.29
				c-0.08,0.55,0.23,1.11,0.85,1.11C366.44,12.98,366.75,12.43,366.67,11.87L366.67,11.87z"/>
		</g>
		<g>
			<path class="st23" d="M389.88,99.51c-0.02-0.03-0.04-0.06-0.06-0.08c-0.3-0.44-0.8-0.69-1.34-0.55c-0.48,0.13-0.9,0.63-0.87,1.14
				c0.02,0.48,0.28,0.9,0.73,1.09c0.57,0.24,1.14,0.01,1.48-0.49c0.02-0.03,0.04-0.06,0.06-0.08
				C390.07,100.26,390.07,99.79,389.88,99.51L389.88,99.51z"/>
		</g>
		<g class="st32">
			<path class="st23" d="M375.63,128.19c1.07,0,1.07-1.67,0-1.67C374.55,126.52,374.55,128.19,375.63,128.19L375.63,128.19z"/>
		</g>
		<g>
			<path class="st23" d="M457.51,168.58c-0.28-0.27-0.59-0.52-0.98-0.6c-0.64-0.14-1.55,0.08-1.84,0.75
				c-0.16,0.38-0.29,0.71-0.23,1.12c0.08,0.65,0.29,1.2,0.89,1.55c0.5,0.29,1.07,0.31,1.59,0.09
				C458.06,171.01,458.44,169.46,457.51,168.58L457.51,168.58z"/>
		</g>
		<g class="st32">
			<path class="st23" d="M481.08,151.2c1.25,0,1.25-1.95,0-1.95C479.82,149.25,479.82,151.2,481.08,151.2L481.08,151.2z"/>
		</g>
		<g class="st32">
			<path class="st23" d="M454.01,120c0.12,0.27,0.28,0.44,0.53,0.6c0.65,0.43,1.5-0.42,1.07-1.07c-0.16-0.25-0.33-0.41-0.6-0.53
				C454.32,118.7,453.7,119.31,454.01,120L454.01,120z"/>
		</g>
		<g class="st32">
			<path class="st23" d="M492.96,103.57c0.73,0,0.74-1.14,0-1.14C492.22,102.43,492.22,103.57,492.96,103.57L492.96,103.57z"/>
		</g>
		<g class="st32">
			<path class="st23" d="M533.82,154.97c-0.06-0.01-0.13-0.02-0.19-0.03c-0.41-0.07-0.83,0.18-0.83,0.63c0,0.45,0.42,0.7,0.83,0.63
				c0.06-0.01,0.13-0.02,0.19-0.03C534.41,156.07,534.41,155.07,533.82,154.97L533.82,154.97z"/>
		</g>
		<g class="st32">
			<path class="st23" d="M560.47,92.9c-0.01,0-0.03,0.01-0.04,0.01c0.32,0,0.64,0,0.96,0c-0.01,0-0.02-0.01-0.03-0.01
				c0.27,0.15,0.53,0.31,0.8,0.46c0.29,0.37,0.33,0.41,0.1,0.13c-0.3-0.4-0.21-0.23,0.26,0.51c-0.2-0.59-0.6-1.05-1.22-1.22
				c-0.58-0.16-1.29-0.01-1.7,0.45c-0.56,0.62-0.8,1.56-0.32,2.31c0.26,0.4,0.64,0.72,1.11,0.85c0.51,0.14,1,0.03,1.46-0.2
				c0.37-0.18,0.74-0.68,0.83-1.08c0.09-0.4,0.07-0.79-0.09-1.17C562.24,93.11,561.36,92.7,560.47,92.9L560.47,92.9z"/>
		</g>
		<g class="st32">
			<path class="st23" d="M516.42,50.23c-0.1,0-0.2,0-0.3,0.01c-1.01,0.02-1.01,1.54,0,1.57c0.1,0,0.2,0,0.3,0.01
				C517.44,51.83,517.44,50.2,516.42,50.23L516.42,50.23z"/>
		</g>
		<g class="st32">
			<path class="st23" d="M559.19,26.91c0.71,0,0.71-1.1,0-1.1C558.49,25.81,558.49,26.91,559.19,26.91L559.19,26.91z"/>
		</g>
		<g class="st32">
			<path class="st23" d="M483.15,26.28c1.04,0,1.04-1.61,0-1.61C482.12,24.67,482.12,26.28,483.15,26.28L483.15,26.28z"/>
		</g>
		<g class="st32">
			<path class="st23" d="M464.69,233.43c0.17,0.17,0.34,0.33,0.52,0.5c0,0.58,0,1.16,0,1.74c0.23-0.51,0.32-0.94,0.19-1.48
				c-0.01-0.03-0.02-0.07-0.03-0.1c-0.42-1.28,0.02,0.4,0.01,0.3c-0.07-0.68-0.45-1.4-1.19-1.56c-0.65-0.14-1.27-0.01-1.76,0.47
				c-0.54,0.54-0.6,1.19-0.49,1.9c0.08,0.55,0.71,1.17,1.26,1.26c0.42,0.07,0.67,0.11,1.1,0.02c0.64-0.13,1.11-0.78,1.19-1.38
				C465.57,234.4,465.25,233.81,464.69,233.43L464.69,233.43z"/>
		</g>
		<g>
			<path class="st23" d="M520.88,263.15c1.59,0,1.59-2.47,0-2.47C519.29,260.67,519.28,263.15,520.88,263.15L520.88,263.15z"/>
		</g>
		<g class="st32">
			<path class="st23" d="M560.68,236.94c1.12,0,1.12-1.74,0-1.74C559.56,235.2,559.56,236.94,560.68,236.94L560.68,236.94z"/>
		</g>
		<g class="st32">
			<path class="st23" d="M558.14,279.25c-0.03-0.01-0.06-0.01-0.09-0.02c0.08,0.04,0.15,0.09,0.23,0.13
				c-0.03-0.03-0.07-0.06-0.1-0.1c-0.41-0.38-1.11-0.12-1.11,0.46c0,0.58,0.7,0.84,1.11,0.46c0.03-0.03,0.07-0.06,0.1-0.09
				c-0.08,0.04-0.15,0.09-0.23,0.13c0.03-0.01,0.06-0.01,0.09-0.02C558.61,280.12,558.61,279.35,558.14,279.25L558.14,279.25z"/>
		</g>
		<g class="st32">
			<path class="st23" d="M494.44,305.71c0.18,0,0.18-0.28,0-0.28C494.26,305.44,494.26,305.71,494.44,305.71L494.44,305.71z"/>
		</g>
		<g class="st32">
			<path class="st23" d="M446.62,292.56c0.45,0,0.45-0.7,0-0.7C446.17,291.86,446.17,292.56,446.62,292.56L446.62,292.56z"/>
		</g>
		<g class="st32">
			<path class="st23" d="M431.47,255.65c0.73,0,0.74-1.14,0-1.14C430.74,254.51,430.73,255.65,431.47,255.65L431.47,255.65z"/>
		</g>
		<g class="st32">
			<path class="st23" d="M384.24,309.56c2.07,0,2.07-3.22,0-3.22C382.17,306.34,382.17,309.56,384.24,309.56L384.24,309.56z"/>
		</g>
		<g class="st32">
			<path class="st23" d="M403.85,246.69c0.29,0,0.29-0.45,0-0.45C403.55,246.24,403.55,246.69,403.85,246.69L403.85,246.69z"/>
		</g>
		<g class="st32">
			<path class="st23" d="M410.38,295.77c1.15,0,1.15-1.79,0-1.79C409.23,293.99,409.23,295.77,410.38,295.77L410.38,295.77z"/>
		</g>
		<g class="st32">
			<path class="st23" d="M331.89,311.94c-0.05-0.11-0.11-0.22-0.16-0.33c0,0.37,0,0.75,0,1.12c0.05-0.08,0.09-0.15,0.14-0.23
				c0.42-0.69,0.27-1.63-0.28-2.19c-0.3-0.31-0.66-0.52-1.08-0.58c-0.54-0.07-0.97-0.05-1.42,0.29c-0.43,0.33-0.59,0.75-0.64,1.27
				c-0.04,0.42,0.06,0.84,0.29,1.2c0.42,0.64,1.27,1.09,2.04,0.83c0.09-0.03,0.19-0.06,0.28-0.09c-0.36-0.09-0.72-0.19-1.08-0.29
				c0.1,0.08,0.19,0.16,0.29,0.23c0.4,0.33,0.92,0.42,1.35,0.08C332.05,312.95,332.13,312.41,331.89,311.94L331.89,311.94z"/>
		</g>
		<g class="st32">
			<path class="st23" d="M469.47,314.25c-0.04-0.16-0.09-0.32-0.19-0.46c-0.35-0.51-1.02-0.51-1.36,0c-0.1,0.14-0.14,0.3-0.19,0.46
				c-0.16,0.56,0.29,1.14,0.87,1.14C469.18,315.39,469.62,314.81,469.47,314.25L469.47,314.25z"/>
		</g>
		<g class="st32">
			<path class="st23" d="M487.39,273.87c-0.02,0-0.05,0-0.07,0c-0.89-0.05-1.75,0.82-1.7,1.7c0,0.03,0,0.05,0,0.07
				c0.04,0.72,0.42,1.34,1.09,1.62c0.63,0.27,1.46,0.16,1.94-0.37c0.42-0.46,0.63-1.11,0.46-1.73
				C488.88,274.39,488.17,273.92,487.39,273.87L487.39,273.87z"/>
		</g>
		<g class="st32">
			<path class="st23" d="M549.1,311.83c1.17,0,1.17-1.81,0-1.81C547.93,310.01,547.93,311.83,549.1,311.83L549.1,311.83z"/>
		</g>
		<g class="st32">
			<path class="st23" d="M250.46,192.61c0.7,0,0.7-1.08,0-1.08C249.77,191.52,249.77,192.61,250.46,192.61L250.46,192.61z"/>
		</g>
		<g class="st32">
			<path class="st23" d="M268.27,176.01c-0.02-0.08-0.05-0.16-0.07-0.24c-0.17-0.58-1.01-0.58-1.18,0
				c-0.02,0.08-0.05,0.16-0.07,0.24c-0.13,0.43,0.23,0.87,0.66,0.87C268.05,176.89,268.4,176.45,268.27,176.01L268.27,176.01z"/>
		</g>
		<g class="st32">
			<path class="st23" d="M260.7,216.21c0.11,0,0.11-0.17,0-0.17C260.59,216.03,260.59,216.21,260.7,216.21L260.7,216.21z"/>
		</g>
		<g class="st32">
			<path class="st23" d="M255.84,212.97c0.23,0,0.23-0.35,0-0.35C255.61,212.62,255.61,212.97,255.84,212.97L255.84,212.97z"/>
		</g>
		<g class="st32">
			<path class="st23" d="M197.49,221.3c0.4,0,0.41-0.63,0-0.63C197.08,220.67,197.08,221.3,197.49,221.3L197.49,221.3z"/>
		</g>
		<g class="st32">
			<path class="st23" d="M308.81,188.15c0.57,0,0.57-0.88,0-0.88C308.25,187.28,308.25,188.15,308.81,188.15L308.81,188.15z"/>
		</g>
		<g class="st32">
			<path class="st23" d="M320.33,205.83c0.92,0,0.92-1.43,0-1.43C319.41,204.4,319.41,205.83,320.33,205.83L320.33,205.83z"/>
		</g>
		<g class="st32">
			<path class="st23" d="M333.12,166.23c1.01,0,1.01-1.57,0-1.57C332.12,164.67,332.12,166.23,333.12,166.23L333.12,166.23z"/>
		</g>
		<g class="st32">
			<path class="st23" d="M447.01,154.23c1.04,0,1.04-1.61,0-1.61C445.97,152.62,445.97,154.23,447.01,154.23L447.01,154.23z"/>
		</g>
		<g class="st32">
			<path class="st23" d="M435.24,183.39c0.37,0,0.37-0.57,0-0.57C434.87,182.82,434.87,183.39,435.24,183.39L435.24,183.39z"/>
		</g>
		<g class="st32">
			<path class="st23" d="M475.67,207.38c0.93,0,0.93-1.45,0-1.45C474.74,205.93,474.74,207.38,475.67,207.38L475.67,207.38z"/>
		</g>
		<g class="st32">
			<path class="st23" d="M506.64,155.19c0.96,0,0.96-1.49,0-1.49C505.68,153.7,505.68,155.19,506.64,155.19L506.64,155.19z"/>
		</g>
		<g>
			<path class="st23" d="M509.45,137.69c0.83,0,0.83-1.29,0-1.29C508.63,136.4,508.62,137.69,509.45,137.69L509.45,137.69z"/>
		</g>
		<g class="st32">
			<path class="st23" d="M458.53,85.83c0.29,0,0.29-0.45,0-0.45S458.23,85.83,458.53,85.83L458.53,85.83z"/>
		</g>
		<g class="st32">
			<path class="st23" d="M426.28,87.31c0.56,0,0.56-0.86,0-0.86C425.73,86.45,425.72,87.31,426.28,87.31L426.28,87.31z"/>
		</g>
		<g class="st32">
			<path class="st23" d="M545.28,84.47c0.52,0,0.52-0.8,0-0.8C544.77,83.66,544.77,84.47,545.28,84.47L545.28,84.47z"/>
		</g>
		<g class="st32">
			<g>
				<path class="st23" d="M568.32,150.29c1.24,0,1.24-1.92,0-1.92C567.08,148.37,567.08,150.29,568.32,150.29L568.32,150.29z"/>
			</g>
		</g>
		<g class="st32">
			<path class="st23" d="M541.45,259.56c0.57,0,0.58-0.89,0-0.89C540.87,258.67,540.87,259.56,541.45,259.56L541.45,259.56z"/>
		</g>
		<g class="st32">
			<path class="st23" d="M518.67,289.13c0.09,0,0.09-0.15,0-0.15C518.57,288.99,518.57,289.13,518.67,289.13L518.67,289.13z"/>
		</g>
		<g class="st32">
			<path class="st23" d="M527.11,291.25c0.19,0,0.19-0.29,0-0.29C526.92,290.96,526.92,291.25,527.11,291.25L527.11,291.25z"/>
		</g>
		<g class="st32">
			<path class="st23" d="M429.86,316c1.08,0,1.08-1.68,0-1.68C428.78,314.32,428.78,316,429.86,316L429.86,316z"/>
		</g>
		<g class="st32">
			<path class="st23" d="M401.2,271.88c0.94,0,0.94-1.46,0-1.46C400.26,270.41,400.26,271.88,401.2,271.88L401.2,271.88z"/>
		</g>
		<g class="st32">
			<path class="st23" d="M458.01,272.99c0.4,0,0.4-0.61,0-0.61C457.62,272.37,457.62,272.99,458.01,272.99L458.01,272.99z"/>
		</g>
		<g class="st32">
			<path class="st23" d="M354.88,296.4c1.21,0,1.22-1.89,0-1.89C353.66,294.51,353.66,296.4,354.88,296.4L354.88,296.4z"/>
		</g>
		<g>
			<path class="st23" d="M188.58,231.27c-0.09,0.02-0.19,0.03-0.28,0.05c-0.5,0.09-0.5,0.93,0,1.02c0.09,0.02,0.19,0.03,0.28,0.05
				c0.36,0.06,0.73-0.16,0.73-0.56C189.31,231.43,188.94,231.2,188.58,231.27L188.58,231.27z"/>
		</g>
		<g class="st32">
			<path class="st23" d="M298.58,271.88c0.29,0,0.29-0.45,0-0.45S298.28,271.88,298.58,271.88L298.58,271.88z"/>
		</g>
		<g class="st32">
			<path class="st23" d="M334.15,225.56c0.95,0,0.95-1.48,0-1.48C333.2,224.08,333.2,225.56,334.15,225.56L334.15,225.56z"/>
		</g>
		<g class="st32">
			<path class="st23" d="M272.98,239.07c-0.09-0.01-0.17-0.02-0.26-0.03c-0.48-0.05-0.89,0.45-0.89,0.88c0,0.44,0.41,0.94,0.89,0.89
				c0.08-0.01,0.17-0.02,0.26-0.03c0.46-0.05,0.86-0.36,0.86-0.86C273.84,239.42,273.44,239.12,272.98,239.07L272.98,239.07z"/>
		</g>
		<g class="st32">
			<path class="st23" d="M246.37,265.35c0.78,0,0.78-1.21,0-1.21C245.59,264.14,245.59,265.35,246.37,265.35L246.37,265.35z"/>
		</g>
		<g class="st32">
			<path class="st23" d="M253.02,297.22c0.95,0,0.95-1.48,0-1.48C252.07,295.74,252.07,297.22,253.02,297.22L253.02,297.22z"/>
		</g>
		<g class="st32">
			<path class="st23" d="M171.38,283.82c0.5,0,0.5-0.78,0-0.78C170.88,283.04,170.88,283.82,171.38,283.82L171.38,283.82z"/>
		</g>
		<g class="st32">
			<path class="st23" d="M166.26,245.11c0.75,0,0.75-1.17,0-1.17C165.51,243.94,165.51,245.11,166.26,245.11L166.26,245.11z"/>
		</g>
		<g class="st32">
			<path class="st23" d="M181.36,209.34c0.5,0,0.5-0.78,0-0.78C180.87,208.57,180.86,209.34,181.36,209.34L181.36,209.34z"/>
		</g>
		<g class="st32">
			<path class="st23" d="M117.38,236.12c0.71,0,0.71-1.1,0-1.1C116.68,235.02,116.68,236.12,117.38,236.12L117.38,236.12z"/>
		</g>
		<g class="st32">
			<path class="st23" d="M100.24,264.11c1.16,0,1.16-1.8,0-1.8C99.08,262.31,99.08,264.11,100.24,264.11L100.24,264.11z"/>
		</g>
		<g class="st32">
			<path class="st23" d="M91.79,315.7c1.03,0,1.03-1.59,0-1.59C90.77,314.11,90.76,315.7,91.79,315.7L91.79,315.7z"/>
		</g>
		<g>
			<path class="st23" d="M17.83,284.07c1.33,0,1.33-2.06,0-2.06C16.5,282.01,16.5,284.07,17.83,284.07L17.83,284.07z"/>
		</g>
		<g class="st32">
			<path class="st23" d="M52.14,212.48c0.26-0.43,0.51-0.85,0.77-1.28c0.25-0.42,0.09-1-0.33-1.24c-0.43-0.25-0.99-0.1-1.24,0.33
				c-0.26,0.43-0.51,0.85-0.77,1.28c-0.25,0.42-0.09,1,0.33,1.24C51.33,213.06,51.89,212.91,52.14,212.48L52.14,212.48z"/>
		</g>
		<g>
			<path class="st23" d="M521.28,176.58c2.34,0,2.35-3.64,0-3.64C518.94,172.93,518.93,176.58,521.28,176.58L521.28,176.58z"/>
		</g>
	</g>
	
		<ellipse transform="matrix(0.7071 -0.7071 0.7071 0.7071 63.4075 412.1953)" class="st33" cx="529.27" cy="129.56" rx="11.31" ry="11.31"/>
	<g class="st3">
		<path class="st34" d="M38.22,52.41c0,6.25-5.07,11.31-11.31,11.31c-6.25,0-11.31-5.07-11.31-11.31c0-6.25,5.07-11.31,11.31-11.31
			C33.15,41.09,38.22,46.16,38.22,52.41z"/>
		<g>
			<path class="st23" d="M15.94,55.81c-2.99-0.66-3.56,3.19-1.66,4.88c3.17,2.82,10.09,0.08,13.41-1.16
				c4.35-1.62,8.57-4.29,10.97-8.38c1.41-2.41,1.88-7.17-2.12-7.09c-0.29,0.01-0.29,0.46,0,0.46c2.74,1.83,3.4,3.83,1.98,6
				c-0.29,0.55-0.63,1.06-1.02,1.55c-0.64,0.88-1.33,1.68-2.13,2.42c-1.67,1.56-3.63,2.78-5.7,3.74c-1.96,0.91-4.03,1.57-6.12,2.09
				c-0.9,0.22-1.81,0.43-2.73,0.59c-0.95,0.19-1.92,0.33-2.89,0.41c-3.46,0.25-4.14-1.5-2.03-5.25
				C16.05,56.06,16.09,55.84,15.94,55.81L15.94,55.81z"/>
		</g>
	</g>
</g>
<g id="Designed_by_freepik" class="st0">
</g>
</svg>
